<svg width="172" height="41" viewBox="0 0 172 41" fill="none" xmlns="http://www.w3.org/2000/svg">
<rect width="171.613" height="40.1432" transform="translate(0 0.428711)" fill="white"/>
<path fill-rule="evenodd" clip-rule="evenodd" d="M10.4712 23.3588C10.4223 23.3648 10.3727 23.3678 10.3226 23.3678C10.0817 23.3678 9.85233 23.299 9.66882 23.1613L0.60789 18.0689C0.42401 17.9722 0.270126 17.8271 0.162956 17.6491C0.0557855 17.4712 -0.000572525 17.2673 4.38508e-06 17.0595V6.73695C4.38508e-06 6.30111 0.240865 5.92262 0.60789 5.72764L9.66882 0.635163C9.85233 0.497528 10.0817 0.428711 10.3226 0.428711C10.5634 0.428711 10.7928 0.497528 10.9763 0.635163L20.0373 5.72764C20.2313 5.8307 20.39 5.98505 20.4966 6.17203C20.3108 6.19472 20.1368 6.26055 19.9915 6.36954L10.9305 11.462C10.5635 11.657 10.3226 12.0355 10.3226 12.4713V22.7939C10.3221 22.9921 10.3734 23.1868 10.4712 23.3588ZM20.7937 6.17202C20.9795 6.19469 21.1536 6.26053 21.299 6.36954L30.3599 11.462C30.7269 11.657 30.9678 12.0355 30.9678 12.4713V22.7939C30.9678 22.9994 30.9143 23.1921 30.8192 23.3588C30.868 23.3648 30.9176 23.3678 30.9677 23.3678C31.2086 23.3678 31.438 23.299 31.6215 23.1613L40.6824 18.0689C41.0494 17.8739 41.2903 17.4954 41.2903 17.0595V6.73695C41.2903 6.30111 41.0494 5.92262 40.6824 5.72764L31.6215 0.635163C31.438 0.497528 31.2086 0.428711 30.9677 0.428711C30.7269 0.428711 30.4975 0.497528 30.314 0.635163L21.253 5.72764C21.059 5.8307 20.9003 5.98504 20.7937 6.17202ZM30.8143 23.3675C30.9124 23.5362 30.9678 23.732 30.9678 23.9411V34.2636C30.9678 34.6995 30.7269 35.078 30.3599 35.273L21.299 40.3654C21.1155 40.5031 20.8861 40.5719 20.6452 40.5719C20.4044 40.5719 20.175 40.5031 19.9915 40.3654L10.9305 35.273C10.7466 35.1763 10.5928 35.0312 10.4856 34.8532C10.3784 34.6753 10.3221 34.4714 10.3226 34.2636V23.9411C10.3226 23.7321 10.378 23.5362 10.4762 23.3675C10.4793 23.3729 10.4824 23.3782 10.4856 23.3835C10.5928 23.5614 10.7466 23.7066 10.9305 23.8032L19.9915 28.8957C20.175 29.0333 20.4044 29.1022 20.6452 29.1022C20.8861 29.1022 21.1155 29.0333 21.299 28.8957L30.3599 23.8032C30.5509 23.7018 30.7078 23.5506 30.8143 23.3675Z" fill="#2E3F51"/>
<path d="M24.017 19.6806C24.017 19.8244 23.9375 19.9493 23.8164 20.0136L20.8263 21.6941C20.7657 21.7396 20.69 21.7623 20.6106 21.7623C20.5311 21.7623 20.4554 21.7396 20.3948 21.6941L17.4047 20.0136C17.344 19.9817 17.2932 19.9338 17.2579 19.8751C17.2225 19.8164 17.2039 19.7491 17.2041 19.6806V16.2741C17.2041 16.1303 17.2836 16.0054 17.4047 15.941L20.3948 14.2605C20.4554 14.2151 20.5311 14.1924 20.6106 14.1924C20.69 14.1924 20.7657 14.2151 20.8263 14.2605L23.8164 15.941C23.9375 16.0054 24.017 16.1303 24.017 16.2741V19.6806Z" fill="#ED727B"/>
<path d="M64.096 21.316H66.424V29.092C66.232 29.156 65.952 29.228 65.584 29.308C65.232 29.388 64.816 29.468 64.336 29.548C63.872 29.628 63.36 29.692 62.8 29.74C62.24 29.804 61.672 29.836 61.096 29.836C59.928 29.836 58.864 29.644 57.904 29.26C56.944 28.876 56.12 28.316 55.432 27.58C54.744 26.844 54.208 25.94 53.824 24.868C53.456 23.796 53.272 22.564 53.272 21.172C53.272 19.78 53.48 18.548 53.896 17.476C54.328 16.388 54.904 15.476 55.624 14.74C56.344 14.004 57.184 13.444 58.144 13.06C59.12 12.676 60.16 12.484 61.264 12.484C62.016 12.484 62.68 12.532 63.256 12.628C63.848 12.724 64.352 12.836 64.768 12.964C65.184 13.092 65.52 13.22 65.776 13.348C66.048 13.476 66.232 13.572 66.328 13.636L65.584 15.58C65.12 15.276 64.504 15.028 63.736 14.836C62.968 14.628 62.184 14.524 61.384 14.524C60.536 14.524 59.76 14.676 59.056 14.98C58.368 15.284 57.776 15.724 57.28 16.3C56.8 16.876 56.424 17.58 56.152 18.412C55.88 19.228 55.744 20.148 55.744 21.172C55.744 22.164 55.856 23.068 56.08 23.884C56.32 24.7 56.672 25.404 57.136 25.996C57.616 26.572 58.2 27.02 58.888 27.34C59.592 27.66 60.416 27.82 61.36 27.82C62.032 27.82 62.6 27.788 63.064 27.724C63.544 27.644 63.888 27.572 64.096 27.508V21.316ZM74.005 12.7C76.341 12.7 78.133 13.148 79.381 14.044C80.645 14.924 81.277 16.244 81.277 18.004C81.277 18.964 81.101 19.788 80.749 20.476C80.413 21.148 79.917 21.7 79.261 22.132C78.621 22.548 77.837 22.852 76.909 23.044C75.981 23.236 74.933 23.332 73.765 23.332H71.917V29.5H69.589V13.108C70.245 12.948 70.973 12.844 71.773 12.796C72.589 12.732 73.333 12.7 74.005 12.7ZM74.197 14.74C73.205 14.74 72.445 14.764 71.917 14.812V21.34H73.669C74.469 21.34 75.189 21.292 75.829 21.196C76.469 21.084 77.005 20.908 77.437 20.668C77.885 20.412 78.229 20.068 78.469 19.636C78.709 19.204 78.829 18.652 78.829 17.98C78.829 17.34 78.701 16.812 78.445 16.396C78.205 15.98 77.869 15.652 77.437 15.412C77.021 15.156 76.533 14.98 75.973 14.884C75.413 14.788 74.821 14.74 74.197 14.74ZM94.8225 12.868V14.884H89.5905V29.5H87.2625V14.884H82.0305V12.868H94.8225ZM94.189 21.268H100.117V23.356H94.189V21.268ZM104.265 17.02H108.993V18.892H104.265V24.652C104.265 25.276 104.313 25.796 104.409 26.212C104.505 26.612 104.649 26.932 104.841 27.172C105.033 27.396 105.273 27.556 105.561 27.652C105.849 27.748 106.185 27.796 106.569 27.796C107.241 27.796 107.777 27.724 108.177 27.58C108.593 27.42 108.881 27.308 109.041 27.244L109.473 29.092C109.249 29.204 108.857 29.34 108.297 29.5C107.737 29.676 107.097 29.764 106.377 29.764C105.529 29.764 104.825 29.66 104.265 29.452C103.721 29.228 103.281 28.9 102.945 28.468C102.609 28.036 102.369 27.508 102.225 26.884C102.097 26.244 102.033 25.508 102.033 24.676V13.54L104.265 13.156V17.02ZM115.961 16.756C116.153 16.756 116.369 16.772 116.609 16.804C116.865 16.82 117.113 16.852 117.353 16.9C117.593 16.932 117.809 16.972 118.001 17.02C118.209 17.052 118.361 17.084 118.457 17.116L118.073 19.06C117.897 18.996 117.601 18.924 117.185 18.844C116.785 18.748 116.265 18.7 115.625 18.7C115.209 18.7 114.793 18.748 114.377 18.844C113.977 18.924 113.713 18.98 113.585 19.012V29.5H111.353V17.548C111.881 17.356 112.537 17.18 113.321 17.02C114.105 16.844 114.985 16.756 115.961 16.756ZM124.355 27.892C124.883 27.892 125.347 27.884 125.747 27.868C126.163 27.836 126.507 27.788 126.779 27.724V24.004C126.619 23.924 126.355 23.86 125.987 23.812C125.635 23.748 125.203 23.716 124.691 23.716C124.355 23.716 123.995 23.74 123.611 23.788C123.243 23.836 122.899 23.94 122.579 24.1C122.275 24.244 122.019 24.452 121.811 24.724C121.603 24.98 121.499 25.324 121.499 25.756C121.499 26.556 121.755 27.116 122.267 27.436C122.779 27.74 123.475 27.892 124.355 27.892ZM124.163 16.708C125.059 16.708 125.811 16.828 126.419 17.068C127.043 17.292 127.539 17.62 127.907 18.052C128.291 18.468 128.563 18.972 128.723 19.564C128.883 20.14 128.963 20.78 128.963 21.484V29.284C128.771 29.316 128.499 29.364 128.147 29.428C127.811 29.476 127.427 29.524 126.995 29.572C126.563 29.62 126.091 29.66 125.579 29.692C125.083 29.74 124.587 29.764 124.091 29.764C123.387 29.764 122.739 29.692 122.147 29.548C121.555 29.404 121.043 29.18 120.611 28.876C120.179 28.556 119.843 28.14 119.603 27.628C119.363 27.116 119.243 26.5 119.243 25.78C119.243 25.092 119.379 24.5 119.651 24.004C119.939 23.508 120.323 23.108 120.803 22.804C121.283 22.5 121.843 22.276 122.483 22.132C123.123 21.988 123.795 21.916 124.499 21.916C124.723 21.916 124.955 21.932 125.195 21.964C125.435 21.98 125.659 22.012 125.867 22.06C126.091 22.092 126.283 22.124 126.443 22.156C126.603 22.188 126.715 22.212 126.779 22.228V21.604C126.779 21.236 126.739 20.876 126.659 20.524C126.579 20.156 126.435 19.836 126.227 19.564C126.019 19.276 125.731 19.052 125.363 18.892C125.011 18.716 124.547 18.628 123.971 18.628C123.235 18.628 122.587 18.684 122.027 18.796C121.483 18.892 121.075 18.996 120.803 19.108L120.539 17.26C120.827 17.132 121.307 17.012 121.979 16.9C122.651 16.772 123.379 16.708 124.163 16.708ZM134.422 29.5H132.19V17.02H134.422V29.5ZM133.294 14.764C132.894 14.764 132.55 14.636 132.262 14.38C131.99 14.108 131.854 13.748 131.854 13.3C131.854 12.852 131.99 12.5 132.262 12.244C132.55 11.972 132.894 11.836 133.294 11.836C133.694 11.836 134.03 11.972 134.302 12.244C134.59 12.5 134.734 12.852 134.734 13.3C134.734 13.748 134.59 14.108 134.302 14.38C134.03 14.636 133.694 14.764 133.294 14.764ZM137.78 17.38C138.292 17.252 138.972 17.116 139.82 16.972C140.668 16.828 141.644 16.756 142.748 16.756C143.74 16.756 144.564 16.9 145.22 17.188C145.876 17.46 146.396 17.852 146.78 18.364C147.18 18.86 147.46 19.46 147.62 20.164C147.78 20.868 147.86 21.644 147.86 22.492V29.5H145.628V22.972C145.628 22.204 145.572 21.548 145.46 21.004C145.364 20.46 145.196 20.02 144.956 19.684C144.716 19.348 144.396 19.108 143.996 18.964C143.596 18.804 143.1 18.724 142.508 18.724C142.268 18.724 142.02 18.732 141.764 18.748C141.508 18.764 141.26 18.788 141.02 18.82C140.796 18.836 140.588 18.86 140.396 18.892C140.22 18.924 140.092 18.948 140.012 18.964V29.5H137.78V17.38ZM150.386 23.284C150.386 22.18 150.546 21.22 150.866 20.404C151.186 19.572 151.61 18.884 152.138 18.34C152.666 17.796 153.274 17.388 153.962 17.116C154.65 16.844 155.354 16.708 156.074 16.708C157.754 16.708 159.042 17.236 159.938 18.292C160.834 19.332 161.282 20.924 161.282 23.068C161.282 23.164 161.282 23.292 161.282 23.452C161.282 23.596 161.274 23.732 161.258 23.86H152.714C152.81 25.156 153.186 26.14 153.842 26.812C154.498 27.484 155.522 27.82 156.914 27.82C157.698 27.82 158.354 27.756 158.882 27.628C159.426 27.484 159.834 27.348 160.106 27.22L160.418 29.092C160.146 29.236 159.666 29.388 158.978 29.548C158.306 29.708 157.538 29.788 156.674 29.788C155.586 29.788 154.642 29.628 153.842 29.308C153.058 28.972 152.41 28.516 151.898 27.94C151.386 27.364 151.002 26.684 150.746 25.9C150.506 25.1 150.386 24.228 150.386 23.284ZM158.954 22.06C158.97 21.052 158.714 20.228 158.186 19.588C157.674 18.932 156.962 18.604 156.05 18.604C155.538 18.604 155.082 18.708 154.682 18.916C154.298 19.108 153.97 19.364 153.698 19.684C153.426 20.004 153.21 20.372 153.05 20.788C152.906 21.204 152.81 21.628 152.762 22.06H158.954ZM168.616 16.756C168.808 16.756 169.024 16.772 169.264 16.804C169.52 16.82 169.768 16.852 170.008 16.9C170.248 16.932 170.464 16.972 170.656 17.02C170.864 17.052 171.016 17.084 171.112 17.116L170.728 19.06C170.552 18.996 170.256 18.924 169.84 18.844C169.44 18.748 168.92 18.7 168.28 18.7C167.864 18.7 167.448 18.748 167.032 18.844C166.632 18.924 166.368 18.98 166.24 19.012V29.5H164.008V17.548C164.536 17.356 165.192 17.18 165.976 17.02C166.76 16.844 167.64 16.756 168.616 16.756Z" fill="#2E3F51"/>
</svg>
