<?xml version="1.0" standalone="no"?>
<!DOCTYPE svg PUBLIC "-//W3C//DTD SVG 20010904//EN"
 "http://www.w3.org/TR/2001/REC-SVG-20010904/DTD/svg10.dtd">
<svg version="1.0" xmlns="http://www.w3.org/2000/svg"
 width="1120.000000pt" height="1120.000000pt" viewBox="0 0 1120.000000 1120.000000"
 preserveAspectRatio="xMidYMid meet">

<g transform="translate(0.000000,1120.000000) scale(0.100000,-0.100000)"
fill="#000000" stroke="none">
<path d="M4471 7774 c-252 -34 -487 -148 -679 -329 -197 -186 -310 -406 -347
-675 -17 -118 -17 -133 -1 -248 36 -266 142 -484 329 -678 153 -161 350 -273
594 -340 92 -26 112 -27 333 -29 l235 -2 110 -127 c113 -129 239 -250 316
-303 55 -38 129 -76 136 -70 2 3 -2 25 -9 48 -8 28 -12 98 -12 189 1 134 3
150 27 207 15 34 27 67 27 72 0 6 -40 37 -89 71 -279 191 -457 422 -556 724
-36 108 -43 142 -55 262 -12 134 6 347 41 459 64 208 174 402 317 556 74 79
75 73 -24 119 -94 43 -225 80 -343 95 -129 18 -214 17 -350 -1z"/>
<path d="M6120 7766 c-157 -24 -352 -99 -481 -186 -71 -48 -212 -165 -245
-203 -224 -258 -315 -520 -283 -814 24 -227 104 -402 266 -586 159 -180 365
-310 597 -378 146 -43 304 -61 461 -53 148 7 225 -6 294 -52 103 -68 148 -214
122 -394 -7 -45 -10 -84 -7 -87 9 -10 67 19 128 65 180 132 347 374 459 666
31 81 41 96 112 165 220 213 336 526 307 826 -41 427 -345 799 -780 954 -217
77 -257 83 -575 87 -202 2 -316 -1 -375 -10z m-87 -666 c90 -34 154 -117 164
-214 10 -102 -40 -198 -132 -248 -97 -53 -230 -29 -300 54 -120 142 -65 360
105 413 63 19 101 18 163 -5z m1127 -1 c117 -53 155 -112 155 -239 0 -72 -4
-91 -24 -123 -53 -86 -124 -129 -215 -130 -187 -4 -315 202 -230 371 59 118
200 173 314 121z"/>
<path d="M2459 4577 c-156 -44 -246 -168 -237 -327 10 -167 107 -273 275 -300
101 -17 246 21 294 76 21 24 31 117 23 200 l-7 64 -128 0 c-138 0 -141 -1
-131 -57 4 -22 9 -23 88 -23 l84 0 0 -71 c0 -70 0 -70 -32 -83 -103 -42 -231
-23 -297 43 -111 111 -88 289 49 374 53 33 182 31 244 -3 l45 -24 31 29 c27
26 29 30 14 46 -48 53 -219 83 -315 56z"/>
<path d="M4840 4577 c-123 -42 -198 -125 -220 -245 -34 -192 74 -353 260 -383
85 -14 183 -1 244 34 59 33 66 51 33 81 l-27 25 -43 -22 c-35 -18 -58 -22
-137 -22 -88 0 -98 2 -138 29 -66 45 -95 103 -96 191 0 64 3 78 30 121 18 30
48 60 79 79 44 27 56 30 134 30 72 0 92 -4 125 -23 l39 -23 30 29 c18 18 26
35 22 42 -4 7 -35 25 -69 41 -53 25 -72 29 -146 28 -47 0 -101 -6 -120 -12z"/>
<path d="M8574 4581 c-16 -4 -54 -21 -83 -37 -124 -67 -183 -207 -151 -359 25
-122 105 -200 238 -231 164 -39 325 30 400 171 24 44 27 61 27 145 0 84 -3
101 -27 145 -33 63 -78 105 -148 140 -44 22 -71 28 -140 31 -47 2 -99 0 -116
-5z m213 -108 c83 -39 135 -154 115 -251 -14 -69 -42 -112 -94 -148 -39 -27
-48 -29 -139 -29 -93 0 -99 1 -141 31 -123 89 -123 291 0 378 22 16 58 32 79
37 50 10 140 1 180 -18z"/>
<path d="M3047 4573 c-9 -8 -9 -431 0 -540 l6 -83 43 0 44 0 0 99 c0 55 3 106
6 115 5 13 25 16 116 16 135 0 191 20 234 82 51 73 43 193 -16 255 -50 54 -87
63 -263 63 -90 0 -167 -3 -170 -7z m334 -93 c51 -28 67 -138 25 -183 -32 -34
-52 -38 -166 -35 l-95 3 -3 113 -3 112 111 0 c61 0 120 -5 131 -10z"/>
<path d="M3654 4566 c-3 -8 -4 -27 -2 -43 l3 -28 103 -3 102 -3 0 -269 0 -270
44 0 44 0 7 243 c4 133 6 249 5 257 -6 37 -1 39 108 42 l107 3 3 43 3 42 -261
0 c-215 0 -262 -2 -266 -14z"/>
<path d="M5376 4565 c-8 -21 -8 -578 0 -599 4 -11 19 -16 50 -16 l43 0 3 133
3 132 182 3 183 2 6 -25 c4 -15 3 -66 0 -115 -10 -119 -6 -130 49 -130 38 0
43 3 48 27 3 15 2 154 -1 310 -5 306 -1 284 -57 288 -41 3 -45 -11 -45 -146
l0 -129 -72 0 c-40 0 -123 3 -185 7 l-112 6 -3 131 -3 131 -41 3 c-31 2 -43
-1 -48 -13z"/>
<path d="M6351 4438 c-38 -79 -105 -217 -150 -306 -44 -90 -81 -168 -81 -173
0 -6 21 -9 48 -7 l47 3 45 85 45 85 157 3 158 3 45 -91 45 -90 55 0 c30 0 55
2 55 6 0 12 -293 590 -308 607 -9 11 -30 17 -54 17 l-39 0 -68 -142z m169 -94
c28 -59 50 -113 50 -120 0 -11 -23 -14 -104 -14 -58 0 -107 4 -110 9 -6 9 99
231 109 231 3 0 28 -48 55 -106z"/>
<path d="M6870 4551 c0 -24 6 -31 40 -45 24 -9 69 -16 110 -16 l70 0 0 -270 0
-270 50 0 50 0 0 270 0 269 108 3 107 3 3 43 3 42 -270 0 -271 0 0 -29z"/>
<path d="M7602 4268 l3 -313 200 1 c182 1 204 3 240 21 45 24 66 44 89 90 29
59 15 115 -47 180 l-30 32 26 30 c31 37 41 78 32 131 -8 50 -36 85 -88 113
-38 20 -58 22 -235 25 l-192 4 2 -314z m383 200 c15 -14 28 -38 32 -60 5 -32
1 -41 -25 -68 l-30 -30 -131 0 -131 0 0 83 c0 46 3 87 7 90 3 4 62 7 129 7
113 0 125 -2 149 -22z m29 -273 c36 -33 36 -92 0 -126 -25 -23 -31 -24 -167
-24 l-142 0 -3 74 c-2 41 -1 80 2 88 4 10 37 13 144 13 134 0 140 -1 166 -25z"/>
<path d="M9172 4538 l3 -43 108 -3 107 -3 0 -254 c0 -139 3 -260 6 -269 9 -22
89 -22 98 0 3 9 6 130 6 269 l0 254 113 3 112 3 3 43 3 42 -281 0 -281 0 3
-42z"/>
<path d="M1126 3580 c-42 -13 -75 -48 -87 -93 -14 -51 -4 -88 31 -122 49 -47
172 -44 188 4 4 11 -2 12 -24 6 -58 -15 -117 -9 -136 15 -29 36 -24 100 10
133 32 30 91 37 112 13 13 -17 40 -10 40 10 0 27 -86 49 -134 34z"/>
<path d="M1345 3578 c-3 -8 -4 -66 -3 -128 3 -100 5 -115 21 -118 14 -3 17 4
17 42 0 44 1 46 30 46 23 0 35 -9 60 -45 19 -27 39 -45 50 -45 24 0 26 22 4
40 -34 29 -35 47 -4 79 36 36 38 70 6 108 -21 25 -31 28 -100 31 -59 3 -77 1
-81 -10z m139 -34 c16 -6 21 -39 10 -68 -5 -12 -20 -16 -60 -16 l-54 0 0 45 0
45 44 0 c24 0 51 -3 60 -6z"/>
<path d="M1632 3463 l3 -128 88 -3 c82 -3 87 -2 87 18 0 18 -6 20 -70 20 l-70
0 0 35 0 34 63 3 c47 2 62 7 62 18 0 11 -15 16 -62 18 l-63 3 0 34 0 34 62 3
c50 2 63 6 66 21 3 15 -6 17 -83 17 l-86 0 3 -127z"/>
<path d="M1960 3568 c-57 -140 -90 -223 -90 -230 0 -18 27 -7 52 22 22 26 33
30 75 30 54 0 65 -5 82 -37 6 -13 21 -23 32 -23 25 0 22 11 -37 138 -24 51
-44 96 -44 101 0 10 -24 21 -46 21 -8 0 -19 -10 -24 -22z m64 -81 c24 -63 22
-67 -29 -67 -25 0 -45 4 -45 9 0 16 41 101 49 101 5 0 16 -19 25 -43z"/>
<path d="M2147 3584 c-19 -19 -5 -34 32 -34 49 0 51 -6 51 -127 0 -85 2 -94
18 -91 15 3 17 18 20 110 l3 107 42 3 c29 2 42 8 42 18 0 12 -19 16 -101 18
-55 1 -103 0 -107 -4z"/>
<path d="M2424 3577 c-2 -7 -3 -65 -2 -128 l3 -114 88 -3 c81 -3 88 -1 85 15
-3 15 -15 19 -71 21 l-68 3 4 32 c3 31 4 32 60 35 46 2 57 6 57 20 0 14 -9 17
-43 18 -62 0 -77 9 -77 44 l0 30 70 0 c63 0 70 2 70 20 0 18 -7 20 -85 20 -61
0 -87 -4 -91 -13z"/>
<path d="M2777 3583 c-3 -5 15 -39 38 -78 30 -48 44 -81 44 -107 1 -47 10 -68
27 -68 13 0 18 21 15 66 -1 12 23 59 54 104 30 46 53 85 51 88 -16 16 -55 -14
-85 -64 l-34 -56 -30 53 c-17 30 -36 57 -41 61 -14 10 -34 10 -39 1z"/>
<path d="M3099 3567 c-47 -32 -61 -62 -56 -126 3 -48 8 -59 38 -83 27 -23 43
-28 84 -28 62 0 93 15 122 59 43 64 24 140 -45 179 -51 28 -100 28 -143 -1z
m136 -41 c92 -92 -37 -222 -132 -134 -33 31 -32 100 2 133 33 34 96 35 130 1z"/>
<path d="M3387 3584 c-4 -4 -7 -50 -7 -101 0 -91 1 -96 29 -124 24 -24 38 -29
77 -29 30 0 59 7 80 21 l34 21 0 104 c0 97 -1 104 -20 104 -19 0 -20 -7 -20
-99 0 -108 -1 -111 -64 -111 -57 0 -65 14 -68 120 -2 76 -6 95 -18 98 -9 1
-19 0 -23 -4z"/>
<path d="M3690 3460 c0 -123 1 -130 20 -130 17 0 20 7 20 45 0 43 1 45 30 45
24 0 34 -7 52 -39 16 -28 31 -41 50 -43 34 -5 35 -1 3 42 l-24 33 29 34 c34
38 36 52 15 92 -18 35 -60 51 -136 51 l-59 0 0 -130z m149 76 c7 -8 11 -27 9
-43 -3 -27 -6 -28 -60 -31 l-58 -3 0 46 0 45 49 0 c30 0 53 -5 60 -14z"/>
<path d="M4153 3570 c-45 -27 -66 -64 -66 -115 0 -53 20 -87 66 -109 67 -31
143 -15 186 40 28 36 29 112 1 146 -43 56 -130 73 -187 38z m139 -50 c26 -27
30 -36 25 -68 -9 -53 -58 -96 -101 -88 -56 11 -81 38 -84 89 -3 40 1 51 24 72
40 37 96 35 136 -5z"/>
<path d="M4406 3582 c-8 -14 69 -235 86 -246 22 -14 48 0 48 26 0 29 31 138
39 138 4 0 17 -38 30 -85 21 -74 27 -85 47 -85 24 0 32 16 78 165 24 78 22
103 -7 92 -12 -5 -57 -134 -57 -165 0 -8 -5 -12 -12 -10 -6 2 -19 37 -28 77
-32 133 -67 132 -98 -4 -10 -44 -22 -79 -27 -78 -9 2 -21 37 -47 141 -8 29
-17 42 -29 42 -10 0 -20 -4 -23 -8z"/>
<path d="M4830 3460 c0 -123 1 -130 20 -130 11 0 20 6 21 13 0 6 1 45 1 85 0
40 3 74 7 77 4 2 27 -25 50 -60 56 -84 86 -115 111 -115 20 0 21 4 18 128 -3
105 -6 127 -18 127 -12 0 -16 -17 -18 -82 -2 -46 -7 -83 -11 -83 -5 0 -31 30
-59 68 -70 93 -79 102 -102 102 -19 0 -20 -7 -20 -130z"/>
<path d="M5362 3565 c-7 -14 -12 -30 -12 -35 0 -5 -11 -33 -24 -62 -54 -118
-57 -128 -41 -135 18 -6 45 14 45 33 0 11 17 14 68 14 64 0 70 -2 80 -25 7
-15 20 -25 32 -25 24 0 22 12 -13 90 -11 25 -33 73 -48 108 -23 51 -32 62 -52
62 -16 0 -28 -9 -35 -25z m58 -85 c28 -54 26 -60 -20 -60 -22 0 -40 3 -40 7 0
11 32 93 36 93 2 0 13 -18 24 -40z"/>
<path d="M5594 3575 c-7 -16 4 -236 11 -244 2 -2 11 -1 20 3 13 5 15 24 13
128 -3 108 -5 123 -21 126 -9 2 -20 -4 -23 -13z"/>
<path d="M5938 3584 c-9 -9 -11 -215 -2 -238 14 -37 44 -10 44 40 0 21 5 24
35 24 105 0 159 79 101 147 -21 25 -32 28 -97 31 -41 2 -77 0 -81 -4z m133
-44 c26 -15 26 -66 -1 -80 -12 -6 -38 -10 -58 -8 -34 3 -37 6 -40 36 -2 19 -1
40 2 48 6 17 68 19 97 4z"/>
<path d="M6254 3571 c-35 -21 -64 -75 -64 -119 0 -35 36 -92 70 -109 14 -7 47
-13 74 -13 43 0 53 4 87 39 87 86 27 221 -98 221 -21 0 -52 -9 -69 -19z m133
-45 c23 -20 28 -32 28 -69 0 -73 -47 -106 -122 -85 -26 7 -38 18 -49 43 -20
49 -18 69 12 104 33 40 89 43 131 7z"/>
<path d="M6510 3579 c0 -11 36 -130 63 -208 12 -35 39 -48 55 -28 5 7 15 40
22 73 12 61 25 93 33 84 3 -3 16 -41 29 -85 22 -71 27 -80 48 -80 22 0 27 11
62 120 22 70 34 123 28 129 -20 20 -39 -7 -60 -88 -13 -47 -26 -86 -31 -86 -4
0 -15 35 -25 78 -10 42 -23 83 -30 91 -20 22 -51 4 -58 -34 -13 -65 -38 -137
-45 -129 -7 9 -16 36 -41 132 -8 31 -16 42 -30 42 -11 0 -20 -5 -20 -11z"/>
<path d="M6925 3568 c-3 -13 -5 -70 -3 -128 l3 -105 93 -3 c85 -3 93 -1 90 15
-3 15 -15 19 -71 21 l-68 3 3 32 c3 32 4 32 61 35 41 2 57 7 57 17 0 10 -16
15 -57 17 l-58 3 -3 38 -3 37 75 0 c58 0 76 3 76 14 0 21 -23 26 -111 26 -73
0 -79 -2 -84 -22z"/>
<path d="M7198 3508 c-4 -118 3 -172 25 -176 14 -3 17 4 17 37 0 41 0 41 38
41 32 0 39 -4 51 -32 17 -39 28 -48 59 -48 26 0 29 12 6 30 -33 28 -37 50 -14
75 11 12 23 38 27 58 5 31 1 40 -25 67 -29 28 -35 30 -105 30 l-76 0 -3 -82z
m156 29 c15 -11 17 -19 9 -43 -8 -23 -18 -31 -51 -38 -60 -13 -72 -5 -72 49
l0 45 48 0 c27 0 56 -6 66 -13z"/>
<path d="M7495 3558 c-3 -18 -5 -76 -3 -128 l3 -95 93 -3 c87 -3 92 -2 92 18
0 18 -6 20 -71 20 l-70 0 3 38 3 37 57 0 c32 0 58 3 58 8 0 4 0 12 0 17 0 6
-27 10 -60 10 l-60 0 0 35 0 34 73 3 c56 2 72 6 72 18 0 12 -18 16 -92 18
l-92 3 -6 -33z"/>
<path d="M7769 3578 c-2 -7 -2 -65 1 -128 l5 -115 45 -3 c97 -7 160 27 181 99
10 33 9 45 -5 76 -27 60 -59 77 -147 81 -58 3 -77 1 -80 -10z m166 -53 c31
-30 33 -89 6 -125 -16 -20 -28 -24 -73 -25 l-53 0 -3 88 -3 87 51 0 c41 0 56
-5 75 -25z"/>
<path d="M8279 3567 c-78 -52 -89 -146 -24 -206 35 -32 40 -33 101 -29 43 3
70 10 81 21 27 27 5 39 -43 22 -60 -20 -107 -6 -129 40 -19 42 -13 69 23 108
30 31 84 37 120 11 24 -17 42 -12 42 12 0 19 -59 44 -103 44 -19 0 -49 -10
-68 -23z"/>
<path d="M8537 3583 c-4 -3 -7 -59 -7 -124 0 -107 2 -117 20 -122 17 -4 19 1
22 47 l3 51 68 3 67 3 0 -56 c0 -47 3 -55 19 -55 15 0 19 11 25 61 9 89 7 187
-3 193 -23 14 -40 -7 -43 -52 l-3 -47 -65 0 -65 0 -3 53 c-3 49 -16 65 -35 45z"/>
<path d="M8912 3543 c-47 -106 -82 -192 -82 -202 0 -20 28 -11 48 16 16 21 29
27 75 31 54 4 56 3 71 -27 11 -20 24 -31 37 -31 27 0 23 18 -37 156 -39 87
-50 104 -68 104 -17 0 -28 -11 -44 -47z m71 -70 c8 -23 12 -45 9 -48 -9 -9
-82 -5 -82 4 0 5 9 31 20 57 23 53 31 51 53 -13z"/>
<path d="M9117 3583 c-19 -19 -5 -33 33 -33 l40 0 0 -111 c0 -109 0 -110 23
-107 21 3 22 8 25 111 l3 107 39 0 c33 0 40 3 40 20 0 19 -7 20 -98 20 -54 0
-102 -3 -105 -7z"/>
<path d="M9394 3577 c-2 -7 -3 -65 -2 -128 l3 -114 76 -3 c64 -2 79 0 102 18
33 26 36 66 7 103 -17 22 -18 26 -5 37 26 22 18 58 -17 80 -40 24 -155 29
-164 7z m141 -62 c0 -29 -2 -30 -47 -33 -47 -3 -48 -2 -48 26 0 38 7 43 55 40
37 -3 40 -5 40 -33z m15 -96 c19 -34 -4 -50 -64 -47 -40 2 -52 7 -54 21 -7 37
5 47 57 47 41 0 52 -4 61 -21z"/>
<path d="M9724 3571 c-73 -45 -83 -150 -20 -208 31 -29 42 -33 92 -33 86 0
144 54 144 135 0 94 -131 158 -216 106z m143 -43 c30 -28 32 -94 3 -130 -58
-74 -188 -13 -166 78 18 70 112 100 163 52z"/>
<path d="M9987 3583 c-18 -18 -4 -32 35 -35 l42 -3 -1 -92 c-1 -59 3 -98 12
-109 25 -35 35 -5 35 102 l0 104 40 0 c33 0 40 3 40 20 0 19 -7 20 -98 20 -54
0 -102 -3 -105 -7z"/>
<path d="M5755 3440 c-3 -5 0 -13 8 -16 23 -8 82 0 82 11 0 14 -82 19 -90 5z"/>
</g>
</svg>
