<?xml version="1.0" standalone="no"?>
<!DOCTYPE svg PUBLIC "-//W3C//DTD SVG 20010904//EN"
 "http://www.w3.org/TR/2001/REC-SVG-20010904/DTD/svg10.dtd">
<svg version="1.0" xmlns="http://www.w3.org/2000/svg"
 width="969.000000pt" height="444.000000pt" viewBox="0 0 969.000000 444.000000"
 preserveAspectRatio="xMidYMid meet">

<g transform="translate(0.000000,444.000000) scale(0.100000,-0.100000)"
fill="#000000" stroke="none">
<path d="M3671 4114 c-252 -34 -487 -148 -679 -329 -197 -186 -310 -406 -347
-675 -17 -118 -17 -133 -1 -248 38 -277 146 -495 345 -692 165 -164 333 -259
578 -326 92 -26 112 -27 333 -29 l235 -2 110 -127 c113 -129 239 -250 316
-303 55 -38 129 -76 136 -70 2 3 -2 25 -9 48 -8 28 -12 98 -12 189 1 134 3
150 27 207 15 34 27 67 27 72 0 6 -40 37 -89 71 -279 191 -457 422 -556 724
-36 108 -43 142 -55 262 -12 134 6 347 41 459 64 208 174 402 317 556 74 79
75 73 -24 119 -94 43 -225 80 -343 95 -129 18 -214 17 -350 -1z"/>
<path d="M5320 4106 c-157 -24 -352 -99 -481 -186 -71 -48 -212 -165 -245
-203 -224 -258 -315 -520 -283 -814 24 -227 104 -402 266 -586 151 -171 355
-303 573 -372 143 -46 250 -59 445 -57 199 2 267 -9 334 -54 103 -68 148 -214
122 -394 -7 -45 -10 -84 -7 -87 9 -10 67 19 128 65 180 132 347 374 459 666
31 81 41 96 112 165 219 212 336 526 308 823 -42 430 -345 802 -781 957 -217
77 -257 83 -575 87 -202 2 -316 -1 -375 -10z m-87 -666 c90 -34 154 -117 164
-214 10 -102 -40 -198 -132 -248 -97 -53 -230 -29 -300 54 -120 142 -65 360
105 413 63 19 101 18 163 -5z m1127 -1 c117 -53 155 -112 155 -239 0 -72 -4
-91 -24 -123 -53 -86 -124 -129 -215 -130 -187 -4 -315 202 -230 371 59 118
200 173 314 121z"/>
<path d="M1659 917 c-156 -44 -246 -168 -237 -327 10 -166 106 -273 270 -299
107 -18 250 18 299 75 21 24 31 117 23 200 l-7 64 -128 0 c-138 0 -141 -1
-131 -57 4 -22 9 -23 88 -23 l84 0 0 -71 c0 -70 0 -70 -32 -83 -103 -42 -231
-23 -297 43 -111 111 -88 289 49 374 53 33 182 31 244 -3 l45 -24 31 29 c27
26 29 30 14 46 -48 53 -219 83 -315 56z"/>
<path d="M4040 917 c-125 -44 -198 -125 -220 -245 -18 -99 11 -220 68 -286 91
-104 308 -136 436 -63 59 33 66 51 33 81 l-27 25 -43 -22 c-35 -18 -58 -22
-137 -22 -88 0 -98 2 -138 29 -66 45 -95 103 -96 191 0 64 3 78 30 121 18 30
48 60 79 79 44 27 56 30 134 30 72 0 92 -4 125 -23 l39 -23 30 29 c16 17 26
35 23 41 -4 6 -31 23 -59 38 -44 23 -67 27 -147 30 -57 1 -109 -2 -130 -10z"/>
<path d="M7774 921 c-16 -4 -54 -21 -83 -37 -124 -67 -183 -207 -151 -359 27
-130 116 -210 261 -236 158 -28 305 40 377 176 24 44 27 61 27 145 0 84 -3
101 -27 145 -33 63 -78 105 -148 140 -44 22 -71 28 -140 31 -47 2 -99 0 -116
-5z m213 -108 c83 -39 135 -154 115 -251 -14 -69 -42 -112 -94 -148 -39 -27
-48 -29 -139 -29 -93 0 -99 1 -141 31 -123 89 -123 291 0 378 22 16 58 32 79
37 50 10 140 1 180 -18z"/>
<path d="M2247 913 c-9 -8 -9 -431 0 -540 l6 -83 43 0 44 0 0 99 c0 55 3 106
6 115 5 13 25 16 116 16 135 0 191 20 234 82 51 73 43 193 -16 255 -50 54 -87
63 -263 63 -90 0 -167 -3 -170 -7z m334 -93 c51 -28 67 -138 25 -183 -32 -34
-52 -38 -166 -35 l-95 3 -3 113 -3 112 111 0 c61 0 120 -5 131 -10z"/>
<path d="M2854 906 c-3 -8 -4 -27 -2 -43 l3 -28 103 -3 102 -3 0 -269 0 -270
45 0 45 0 1 93 c0 50 2 166 5 257 2 91 4 170 4 177 0 9 31 13 108 15 l107 3 3
43 3 42 -261 0 c-215 0 -262 -2 -266 -14z"/>
<path d="M4576 905 c-8 -21 -8 -578 0 -599 4 -11 19 -16 50 -16 l43 0 3 133 3
132 182 3 183 2 6 -25 c4 -15 3 -66 0 -115 -10 -119 -6 -130 49 -130 38 0 43
3 48 27 3 15 2 154 -1 310 -5 306 -1 284 -57 288 -41 3 -45 -11 -45 -146 l0
-129 -72 0 c-40 0 -123 3 -185 7 l-112 6 -3 131 -3 131 -41 3 c-31 2 -43 -1
-48 -13z"/>
<path d="M5551 778 c-38 -79 -105 -217 -150 -306 -44 -90 -81 -168 -81 -173 0
-6 21 -9 48 -7 l47 3 45 85 45 85 156 3 157 2 46 -90 47 -90 54 0 c30 0 55 2
55 6 0 12 -293 590 -308 607 -9 11 -30 17 -54 17 l-39 0 -68 -142z m169 -94
c28 -59 50 -113 50 -120 0 -11 -23 -14 -104 -14 -58 0 -107 4 -110 9 -6 9 99
231 109 231 3 0 28 -48 55 -106z"/>
<path d="M6070 891 c0 -24 6 -31 40 -45 24 -9 69 -16 110 -16 l70 0 0 -270 0
-270 50 0 50 0 0 270 0 269 108 3 107 3 3 43 3 42 -270 0 -271 0 0 -29z"/>
<path d="M6802 608 l3 -313 200 1 c182 1 204 3 240 21 45 24 66 44 89 90 29
59 15 115 -47 180 l-30 32 26 30 c31 37 41 78 32 131 -8 50 -36 85 -88 113
-38 20 -58 22 -235 25 l-192 4 2 -314z m383 200 c15 -14 28 -38 32 -60 5 -32
1 -41 -25 -68 l-30 -30 -131 0 -131 0 0 83 c0 46 3 87 7 90 3 4 62 7 129 7
113 0 125 -2 149 -22z m29 -273 c36 -33 36 -92 0 -126 -25 -23 -31 -24 -167
-24 l-142 0 -3 74 c-2 41 -1 80 2 88 4 10 37 13 144 13 134 0 140 -1 166 -25z"/>
<path d="M8372 878 l3 -43 108 -3 107 -3 0 -254 c0 -139 3 -260 6 -269 9 -22
89 -22 98 0 3 9 6 130 6 269 l0 254 113 3 112 3 3 43 3 42 -281 0 -281 0 3
-42z"/>
</g>
</svg>
